<?xml version="1.0" encoding="utf-8"?>
<!-- Generator: Adobe Illustrator 27.4.1, SVG Export Plug-In . SVG Version: 6.00 Build 0)  -->
<svg version="1.1" id="Layer_1" xmlns="http://www.w3.org/2000/svg" xmlns:xlink="http://www.w3.org/1999/xlink" x="0px" y="0px"
	 viewBox="0 0 100 100" style="enable-background:new 0 0 100 100;" xml:space="preserve">
<style type="text/css">
	.st0{fill:#F87171;}
</style>
<g>
	<path class="st0" d="M26.1,91.8c-7.4,0-11.7-4.9-11.7-13V22.7c0-9.5,4.1-14.4,12.1-14.4c5.1,0,8.1,2.1,13,9l22,31.4h1V21.3
		c0-8.3,4.2-13,11.5-13c7.4,0,11.8,4.8,11.8,13v57c0,8.8-3.9,13.5-11.3,13.5c-5.3,0-8.6-2.2-13.5-9.2L38.6,50.6h-1v28.1
		C37.6,87,33.4,91.8,26.1,91.8z"/>
</g>
</svg>
